<?xml version="1.0" encoding="UTF-8" standalone="no"?>
<svg
   xmlns:dc="http://purl.org/dc/elements/1.1/"
   xmlns:cc="http://creativecommons.org/ns#"
   xmlns:rdf="http://www.w3.org/1999/02/22-rdf-syntax-ns#"
   xmlns:svg="http://www.w3.org/2000/svg"
   xmlns="http://www.w3.org/2000/svg"
   xmlns:xlink="http://www.w3.org/1999/xlink"
   xmlns:sodipodi="http://sodipodi.sourceforge.net/DTD/sodipodi-0.dtd"
   xmlns:inkscape="http://www.inkscape.org/namespaces/inkscape"
   version="1.1"
   id="Layer_1"
   x="0"
   y="0"
   width="1024"
   height="1024"
   inkscape:version="0.91 r13725"
   sodipodi:docname="pg_logo_b.svg"
   inkscape:export-filename="/bits/datum/software/pg/media/logo/pg_logo_b.svg.png"
   inkscape:export-xdpi="90"
   inkscape:export-ydpi="90">
  <metadata
     id="metadata3459">
    <rdf:RDF>
      <cc:Work
         rdf:about="">
        <dc:format>image/svg+xml</dc:format>
        <dc:type
           rdf:resource="http://purl.org/dc/dcmitype/StillImage" />
        <dc:title></dc:title>
      </cc:Work>
    </rdf:RDF>
  </metadata>
  <defs
     id="defs3457">
    <marker
       inkscape:stockid="Arrow1Lstart"
       orient="auto"
       refY="0"
       refX="0"
       id="Arrow1Lstart"
       style="overflow:visible"
       inkscape:isstock="true">
      <path
         id="path5895"
         d="M 0,0 5,-5 -12.5,0 5,5 0,0 Z"
         style="fill:#000030;fill-opacity:1;fill-rule:evenodd;stroke:#00002a;stroke-width:1pt;stroke-opacity:1"
         transform="matrix(0.8,0,0,0.8,10,0)"
         inkscape:connector-curvature="0" />
    </marker>
    <linearGradient
       inkscape:collect="always"
       id="linearGradient5883">
      <stop
         style="stop-color:#000030;stop-opacity:1"
         offset="0"
         id="stop5885" />
      <stop
         style="stop-color:#000000;stop-opacity:0;"
         offset="1"
         id="stop5887" />
    </linearGradient>
    <linearGradient
       inkscape:collect="always"
       xlink:href="#linearGradient5883"
       id="linearGradient5889"
       x1="82.56028"
       y1="108.33942"
       x2="82.312019"
       y2="-10.945579"
       gradientUnits="userSpaceOnUse"
       gradientTransform="translate(10.2,2.3999989)" />
    <filter
       style="color-interpolation-filters:sRGB"
       inkscape:label="Drop Shadow"
       id="filter8114">
      <feFlood
         flood-opacity="1"
         flood-color="rgb(0,0,0)"
         result="flood"
         id="feFlood8116" />
      <feComposite
         in="flood"
         in2="SourceGraphic"
         operator="in"
         result="composite1"
         id="feComposite8118" />
      <feGaussianBlur
         in="composite1"
         stdDeviation="3"
         result="blur"
         id="feGaussianBlur8120" />
      <feOffset
         dx="6"
         dy="6"
         result="offset"
         id="feOffset8122" />
      <feComposite
         in="SourceGraphic"
         in2="offset"
         operator="over"
         result="composite2"
         id="feComposite8124" />
    </filter>
  </defs>
  <sodipodi:namedview
     pagecolor="#ffffff"
     bordercolor="#666666"
     borderopacity="1"
     objecttolerance="10"
     gridtolerance="10"
     guidetolerance="10"
     inkscape:pageopacity="0"
     inkscape:pageshadow="2"
     inkscape:window-width="1855"
     inkscape:window-height="1176"
     id="namedview3455"
     showgrid="false"
     inkscape:zoom="0.53943677"
     inkscape:cx="842.3994"
     inkscape:cy="520.58857"
     inkscape:window-x="65"
     inkscape:window-y="24"
     inkscape:window-maximized="1"
     inkscape:current-layer="Layer_1"
     fit-margin-top="-4"
     fit-margin-left="4"
     fit-margin-right="4"
     fit-margin-bottom="0"
     borderlayer="false" />
  <path
     d="m 103.2,90.999999 c 9.9,0 17.4,-1.7 22.6,-5 5.1,-3.3 8.6,-7.4 10.3,-12.2 1.7,-4.8 2.8,-12.8 3.3,-24 0.5,-12.5 3.3,-21.7 8.4,-27.8 5.1,-6.1 13.4,-9.1 25,-9.1 l 0,4.2 c -4.2,0.3 -7,1.9 -8.5,4.9 -1.5,3 -2.2,9.2 -2.2,18.7 0,14 -1.5,24.8 -4.4,32.4 -2.9,7.6 -8.9,13.8 -17.8,18.5 C 131,96.3 118.8,98.9 103.3,99.2 l 0,34.6 c 0,8.5 0.5,14 1.5,16.6 1,2.6 3.1,4.5 6.2,6.1 3.2,1.5 8.1,2.3 14.7,2.3 l 0,4 -65.9,0 0,-4 c 6.5,-0.1 11.3,-0.8 14.5,-2.1 3.2,-1.3 5.3,-3.3 6.3,-5.9 1.1,-2.6 1.6,-8.2 1.6,-16.9 l 0,-34.8 C 66.5,98.7 54.4,96.2 45.7,91.599999 c -8.7,-4.7 -14.5,-10.8 -17.6,-18.3 -3.1,-7.5 -4.6,-18.5 -4.6,-32.8 0,-9.2 -0.7,-15.3 -2.1,-18.3 -1.4,-3 -4.3,-4.8 -8.6,-5.2 l 0,-4.2 c 7.4,0.1 13.3,1.3 17.8,3.5 4.5,2.2 8.1,6 10.9,11.6 2.7,5.5 4.3,12.8 4.6,21.9 0.5,11.1 1.6,19.1 3.2,23.9 1.6,4.8 5.1,8.9 10.3,12.3 5.2,3.4 12.8,5.1 22.6,5.1 l 0,-47.7 c 0,-8.5 -0.5,-14 -1.5,-16.6 -1,-2.6 -3,-4.5 -6.2,-6 -3.1,-1.5 -8,-2.2 -14.7,-2.3 l 0,-4 65.8,0 0,4 c -6.7,0.1 -11.6,0.8 -14.7,2.2 -3.1,1.4 -5.2,3.4 -6.2,6 -1,2.6 -1.5,8.1 -1.5,16.6 l 0,47.7 z"
     id="path3453"
     style="fill:url(#linearGradient5889);fill-opacity:1;stroke:#00002a;stroke-width:1.60000002;stroke-linecap:round;stroke-linejoin:round;stroke-miterlimit:4;stroke-dasharray:none;stroke-opacity:1;filter:url(#filter8114)"
     inkscape:connector-curvature="0"
     transform="matrix(5.2984657,0,0,5.7251323,20.95509,6.071371)" />
</svg>
